<svg id="Layer_1" data-name="Layer 1" xmlns="http://www.w3.org/2000/svg" viewBox="0 0 195 40"><defs><style>.cls-1,.cls-2{fill:#6d6e71;}.cls-1{fill-rule:evenodd;}</style></defs><title>14.Pen-Istanbul-(Grey)</title><path class="cls-1" d="M5.9,10.09c0,1.91,0,3.54-.11,4.41-.06.6-.18,1.05-.6,1.14a3.39,3.39,0,0,1-.74.08c-.25,0-.33.06-.33.17s.14.2.41.2c.83,0,2.13-.06,2.61-.06s1.88.06,3.25.06c.22,0,.39-.06.39-.2s-.1-.17-.33-.17a9.11,9.11,0,0,1-1.06-.08c-.62-.09-.74-.54-.8-1.12-.11-.89-.11-2.52-.11-4.43V1.61l2.61.07c1.84,0,2.4.62,2.44,1.15l0,.23c0,.31.06.41.23.41s.16-.12.19-.33c0-.53.06-2,.06-2.4s0-.43-.17-.43a8.8,8.8,0,0,1-2,.21H3.68A19.13,19.13,0,0,1,1.62.41,4.72,4.72,0,0,1,.73.17C.6.17.54.29.48.56S0,2.61,0,2.94s0,.33.19.33S.42,3.19.46,3A2.27,2.27,0,0,1,.81,2.3c.31-.46.81-.56,2-.6L5.9,1.61Z"/><path class="cls-1" d="M20.54,7a.13.13,0,0,1-.13-.14V6.45c0-3.14,0-3.72.05-4.38s.2-1.08.76-1.18a3.77,3.77,0,0,1,.6-.06c.25,0,.37,0,.37-.19s-.14-.18-.43-.18c-.81,0-2.11.06-2.61.06s-1.86-.06-3-.06c-.29,0-.43,0-.43.18s.12.19.35.19a4.47,4.47,0,0,1,.81.06c.68.14.85.48.89,1.18s0,1.24,0,4.38v3.64c0,1.91,0,3.54-.11,4.41-.08.6-.18,1.05-.6,1.14a3.39,3.39,0,0,1-.74.08c-.25,0-.33.06-.33.17s.14.2.41.2c.83,0,2.13-.06,2.61-.06s1.88.06,3.23.06c.24,0,.41-.06.41-.2s-.1-.17-.33-.17a9.11,9.11,0,0,1-1.06-.08c-.62-.09-.74-.54-.8-1.12-.11-.89-.11-2.52-.11-4.43V8.27c0-.1.07-.12.13-.12h7.9a.12.12,0,0,1,.12.12v1.82c0,1.91,0,3.54-.1,4.41-.08.6-.19,1.05-.6,1.14a3.47,3.47,0,0,1-.74.08c-.25,0-.33.06-.33.17s.14.2.43.2c.81,0,2.11-.06,2.59-.06s1.88.06,3.22.06c.25,0,.42-.06.42-.2s-.11-.17-.33-.17a9.11,9.11,0,0,1-1.06-.08c-.62-.09-.74-.54-.81-1.12-.1-.89-.1-2.52-.1-4.43V6.45c0-3.14,0-3.72,0-4.38S31.4,1,32,.89a3.77,3.77,0,0,1,.6-.06c.25,0,.37,0,.37-.19s-.15-.18-.44-.18c-.8,0-2.1.06-2.6.06S28,.46,26.91.46c-.29,0-.43,0-.43.18s.12.19.35.19a4.27,4.27,0,0,1,.8.06c.69.14.85.48.89,1.18s0,1.24,0,4.38v.44c0,.1-.06.14-.12.14Z"/><path class="cls-1" d="M38.34,10.09c0,1.91,0,3.54-.1,4.41-.09.6-.19,1.05-.6,1.14a3.57,3.57,0,0,1-.75.08c-.25,0-.33.06-.33.17s.15.2.42.2c.82,0,2.13-.06,2.6-.06,1.22,0,2.61.12,5.73.12.79,0,1,0,1.12-.53a16.83,16.83,0,0,0,.27-2.3c0-.21,0-.37-.17-.37s-.18.08-.22.31c-.15.85-.4,1.28-.94,1.53a5.16,5.16,0,0,1-1.94.25C41.32,15,41,14.73,41,13.3c0-.6,0-2.5,0-3.21V8.46c0-.12,0-.21.12-.21.5,0,2.55,0,2.94.07.76.08,1.05.39,1.16.8a5.66,5.66,0,0,1,.08.75c0,.1,0,.18.19.18s.18-.22.18-.39,0-1,.09-1.39c.06-1,.16-1.38.16-1.51s-.06-.16-.14-.16-.19.1-.34.27a1.44,1.44,0,0,1-1,.31c-.47,0-2.85,0-3.31,0C41,7.22,41,7.14,41,7V1.76c0-.15,0-.21.14-.21.42,0,2.59,0,2.94.08,1,.13,1.24.38,1.39.75a2.29,2.29,0,0,1,.12.74c0,.19,0,.29.19.29s.18-.12.2-.22S46,2,46,1.82A13.28,13.28,0,0,1,46.2.48c0-.11,0-.19-.12-.19a1.77,1.77,0,0,0-.33.08,8.21,8.21,0,0,1-.89.13c-.4,0-4.51,0-5.17,0s-1.89-.06-3-.06c-.31,0-.46,0-.46.18s.13.19.35.19a4.47,4.47,0,0,1,.81.06c.68.14.85.48.89,1.18s0,1.24,0,4.38Z"/><path class="cls-1" d="M60.67,10.09c0,1.91,0,3.54-.11,4.41-.08.6-.18,1.05-.6,1.14a3.39,3.39,0,0,1-.74.08c-.25,0-.33.06-.33.17s.14.2.41.2c.83,0,2.13-.06,2.61-.06s1.84.06,3.21.06c.22,0,.39-.06.39-.2s-.1-.17-.33-.17a9.11,9.11,0,0,1-1.06-.08c-.62-.09-.74-.54-.8-1.12-.11-.89-.11-2.52-.11-4.43V1.82c0-.23.06-.35.17-.39a2.89,2.89,0,0,1,.8-.09,3.08,3.08,0,0,1,2.07.81,4,4,0,0,1,1.22,3.1A3.26,3.26,0,0,1,64.7,8.67c-.43,0-.58.06-.58.22s.15.17.25.19a3.17,3.17,0,0,0,.44,0,4.86,4.86,0,0,0,5.08-5,3.6,3.6,0,0,0-1-2.47C68.53,1.32,67.6.46,65,.46c-1,0-2.15.06-3,.06-.58,0-1.88-.06-3-.06-.31,0-.45,0-.45.18s.12.19.35.19a4.47,4.47,0,0,1,.81.06c.68.14.85.48.89,1.18s0,1.24,0,4.38Z"/><path class="cls-1" d="M74.42,10.09c0,1.91,0,3.54-.11,4.41-.08.6-.18,1.05-.6,1.14a3.39,3.39,0,0,1-.74.08c-.25,0-.33.06-.33.17s.14.2.41.2c.83,0,2.13-.06,2.61-.06,1.22,0,2.6.12,5.73.12.78,0,1,0,1.11-.53a15.4,15.4,0,0,0,.27-2.3c0-.21,0-.37-.16-.37s-.19.08-.23.31c-.14.85-.39,1.28-.93,1.53a5.24,5.24,0,0,1-2,.25c-2.11,0-2.44-.31-2.48-1.74,0-.6,0-2.5,0-3.21V8.46c0-.12,0-.21.13-.21.49,0,2.54,0,2.93.07.77.08,1.06.39,1.16.8a5.66,5.66,0,0,1,.08.75.17.17,0,0,0,.19.18c.19,0,.19-.22.19-.39s0-1,.08-1.39A14.11,14.11,0,0,1,82,6.76a.14.14,0,0,0-.15-.16c-.1,0-.19.1-.33.27a1.48,1.48,0,0,1-1,.31c-.48,0-2.86,0-3.31,0C77,7.22,77,7.14,77,7V1.76c0-.15,0-.21.15-.21.41,0,2.58,0,2.93.08,1,.13,1.25.38,1.39.75a2.29,2.29,0,0,1,.12.74c0,.19,0,.29.19.29s.19-.12.21-.22.08-1.16.1-1.37A11.44,11.44,0,0,1,82.28.48c0-.11,0-.19-.13-.19a2,2,0,0,0-.33.08,7.83,7.83,0,0,1-.89.13c-.39,0-4.51,0-5.17,0s-1.88-.06-3-.06c-.31,0-.45,0-.45.18s.12.19.35.19a4.27,4.27,0,0,1,.8.06c.69.14.85.48.89,1.18s0,1.24,0,4.38Z"/><path class="cls-1" d="M89.24,4.59h.06c.37.4,2.67,3,4.93,5.21s4.79,4.84,6.1,6.09c.23.22.47.45.7.45s.27-.19.27-.64l.23-13c0-1.16.18-1.59.76-1.76a2.36,2.36,0,0,1,.62-.06c.25,0,.38-.06.38-.19s-.21-.18-.48-.18c-1,0-1.8.06-2,.06-.43,0-1.42-.06-2.5-.06-.31,0-.54,0-.54.18s.08.19.33.19a3.5,3.5,0,0,1,1.1.12c.5.21.68.6.7,1.86l.21,9.29H100c-.36-.33-3.15-3.31-4.55-4.72C92.4,4.39,89.26,1,89,.74S88.47.1,88.25.1,88,.39,88,.81l-.19,12.24c0,1.8-.1,2.4-.64,2.57a3.78,3.78,0,0,1-.93.1c-.21,0-.33,0-.33.17s.18.2.45.2c1.08,0,2-.06,2.24-.06.39,0,1.22.06,2.56.06.29,0,.48,0,.48-.2s-.13-.17-.35-.17a3.42,3.42,0,0,1-1.08-.14c-.41-.15-.68-.69-.72-2.3Z"/><path class="cls-1" d="M108.51,10.09c0,2,0,3.64-.11,4.51-.06.6-.18,1-.6,1a3.39,3.39,0,0,1-.74.08c-.25,0-.33.06-.33.17s.14.2.41.2c.83,0,2.13-.06,2.61-.06s1.86.06,3.23.06c.22,0,.39-.06.39-.2s-.1-.17-.33-.17a9.11,9.11,0,0,1-1.06-.08c-.62-.09-.76-.46-.82-1-.09-.89-.09-2.52-.09-4.53V6.45c0-3.14,0-3.72,0-4.38s.21-1.08.77-1.18a3.59,3.59,0,0,1,.62-.06c.21,0,.33,0,.33-.21s-.16-.16-.43-.16c-.79,0-2,.06-2.53.06S108,.46,107.18.46c-.33,0-.49,0-.49.16s.12.21.33.21a3,3,0,0,1,.74.08c.46.1.67.46.71,1.16s0,1.24,0,4.38Z"/><path class="cls-1" d="M119.4,4.59h.07c.37.4,2.67,3,4.92,5.21s4.8,4.84,6.1,6.09c.23.22.48.45.71.45s.26-.19.26-.64l.23-13c0-1.16.19-1.59.77-1.76a2.32,2.32,0,0,1,.62-.06c.25,0,.37-.06.37-.19s-.21-.18-.48-.18c-1,0-1.79.06-2,.06-.44,0-1.43-.06-2.51-.06-.31,0-.53,0-.53.18s.08.19.33.19a3.44,3.44,0,0,1,1.09.12c.5.21.69.6.71,1.86l.2,9.29h-.1c-.35-.33-3.14-3.31-4.55-4.72-3-3-6.16-6.37-6.41-6.64s-.54-.64-.77-.64-.27.29-.27.71L118,13.05c0,1.8-.11,2.4-.65,2.57a3.73,3.73,0,0,1-.93.1c-.2,0-.33,0-.33.17s.19.2.46.2c1.07,0,2-.06,2.23-.06.4,0,1.22.06,2.57.06.29,0,.47,0,.47-.2s-.12-.17-.35-.17a3.35,3.35,0,0,1-1.07-.14c-.42-.15-.69-.69-.73-2.3Z"/><path class="cls-1" d="M140.14,16.38a5.9,5.9,0,0,0,3.29-.85,4.17,4.17,0,0,0,1.95-3.6c0-2-.91-3.35-3.4-5.27l-.58-.43c-1.71-1.31-2.19-2-2.19-3a2.18,2.18,0,0,1,2.46-2.13,2.63,2.63,0,0,1,2.26,1,2.56,2.56,0,0,1,.54,1.37c0,.24.06.37.2.37s.23-.17.23-.62c0-1.62.08-2.22.08-2.48s-.1-.21-.29-.25a9.73,9.73,0,0,0-2.75-.35c-2.87,0-4.78,1.63-4.78,3.9,0,1.68.79,3.13,3.06,4.91l1,.74c1.71,1.33,2,2.3,2,3.31a2.51,2.51,0,0,1-2.77,2.36,2.86,2.86,0,0,1-3-2.09,4.53,4.53,0,0,1-.18-1.05c0-.17,0-.36-.21-.36s-.23.23-.25.54-.1,1.57-.1,2.71c0,.46.06.56.39.7A7.06,7.06,0,0,0,140.14,16.38Z"/><path class="cls-1" d="M150.43,9.47c0,3,.79,4.53,1.85,5.48a6.62,6.62,0,0,0,4.59,1.43,6.19,6.19,0,0,0,4.3-1.49c1.74-1.49,2-3.93,2-6.22V6.45c0-3.14,0-3.72,0-4.38s.2-1.08.76-1.18a3.29,3.29,0,0,1,.6-.06c.25,0,.38,0,.38-.19s-.15-.18-.44-.18c-.81,0-2.11.06-2.36.06,0,0-1.32-.06-2.38-.06-.29,0-.43,0-.43.18s.12.19.35.19a4.22,4.22,0,0,1,.75.06c.68.14.84.48.89,1.18s0,1.24,0,4.38V9c0,2.13-.07,4-1.2,5.13a4.06,4.06,0,0,1-2.86,1.12,3.85,3.85,0,0,1-2.58-.85c-1-.83-1.62-2.09-1.62-5.09V6.45c0-3.14,0-3.72,0-4.38s.21-1.08.77-1.18a3.21,3.21,0,0,1,.6-.06c.21,0,.33,0,.33-.19s-.14-.18-.45-.18c-.75,0-2.05.06-2.55.06s-1.92-.06-3-.06c-.31,0-.45,0-.45.18s.12.19.35.19a4.27,4.27,0,0,1,.8.06c.69.14.85.48.89,1.18s0,1.24,0,4.38Z"/><path class="cls-1" d="M171.73,6.45c0-3.14,0-3.72,0-4.38S172,1,172.54.89a5.73,5.73,0,0,1,.81-.06c.24,0,.37,0,.37-.19s-.15-.18-.44-.18c-.8,0-2.31.06-2.81.06s-1.86-.06-2.83-.06c-.31,0-.46,0-.46.18s.13.19.35.19a3.27,3.27,0,0,1,.69.06c.68.14.84.48.88,1.18s.05,1.24.05,4.38v3.64c0,1.91,0,3.54-.11,4.41-.08.6-.18,1.05-.6,1.14a3.39,3.39,0,0,1-.74.08c-.25,0-.33.06-.33.17s.14.2.41.2c.83,0,2.13-.06,2.61-.06,1.67,0,3,.12,6,.12,1.07,0,1.18-.1,1.3-.55a15.69,15.69,0,0,0,.31-2.38c0-.25,0-.35-.16-.35s-.21.12-.23.31a2.58,2.58,0,0,1-.54,1.24c-.52.56-1.32.58-2.42.58-1.61,0-2.15-.15-2.5-.46s-.44-1.8-.44-4.45Z"/><path class="cls-1" d="M188.13,10.69a.2.2,0,0,1,.21.15L190,15.22a.34.34,0,0,1-.18.48c-.21,0-.29.06-.29.19s.25.14.62.16c1.65,0,3.16,0,3.91,0s.95,0,.95-.2-.1-.17-.27-.17a4.69,4.69,0,0,1-.87-.08c-.43-.11-1-.4-1.82-2.26-1.32-3.14-4.63-11.58-5.13-12.72-.21-.47-.33-.66-.52-.66s-.33.23-.57.83l-5.2,13c-.41,1-.8,1.73-1.76,1.86a6.28,6.28,0,0,1-.64,0c-.16,0-.25,0-.25.17s.13.2.4.2c1.07,0,2.21-.06,2.44-.06.64,0,1.53.06,2.19.06.23,0,.35,0,.35-.2s-.06-.17-.31-.17h-.31c-.64,0-.82-.27-.82-.64a3.86,3.86,0,0,1,.31-1.26l1.11-3c0-.12.09-.17.19-.17Zm-4.2-1c-.08,0-.1-.06-.08-.14l1.9-5.09c0-.09.07-.19.13-.19s.08.1.1.19l1.86,5.11c0,.06,0,.12-.1.12Z"/><rect class="cls-2" y="23.57" width="194.91" height="0.66"/><path class="cls-2" d="M42.09,34.84c0-1.47,0-1.74,0-2s-.12-.5-.33-.54a1.29,1.29,0,0,0-.35,0c-.09,0-.15,0-.15-.1s.08-.08.23-.08l1.25,0,1.18,0c.13,0,.2,0,.2.08s-.06.1-.15.1a1.5,1.5,0,0,0-.29,0c-.26,0-.34.21-.36.55s0,.57,0,2v1.69c0,.94,0,1.7,0,2.12,0,.26.1.43.39.47a3.74,3.74,0,0,0,.49,0c.1,0,.15,0,.15.07s-.07.1-.18.1c-.64,0-1.24,0-1.5,0l-1.22,0c-.12,0-.19,0-.19-.1s0-.07.15-.07a1.53,1.53,0,0,0,.35,0c.19,0,.25-.2.28-.48s.05-1.17.05-2.11Z"/><path class="cls-2" d="M54.58,39.21c-.15-.06-.18-.11-.18-.32,0-.53,0-1.11,0-1.27s0-.25.12-.25.1.09.1.17a1.91,1.91,0,0,0,.08.49,1.33,1.33,0,0,0,1.38,1,1.17,1.17,0,0,0,1.29-1.1c0-.47-.14-.92-.94-1.54L56,36a2.84,2.84,0,0,1-1.42-2.28c0-1.06.89-1.82,2.22-1.82a5.08,5.08,0,0,1,1.29.16c.08,0,.13,0,.13.12s0,.4,0,1.16c0,.21,0,.28-.1.28s-.1-.05-.1-.17a1.16,1.16,0,0,0-.25-.63,1.19,1.19,0,0,0-1-.48,1,1,0,0,0-1.15,1c0,.44.22.78,1,1.38l.27.21c1.16.89,1.58,1.54,1.58,2.45a1.94,1.94,0,0,1-.9,1.68,2.76,2.76,0,0,1-1.53.39A3.23,3.23,0,0,1,54.58,39.21Z"/><path class="cls-2" d="M70.66,32.58l-1.43,0c-.56,0-.79.07-.94.28a1.36,1.36,0,0,0-.16.34c0,.08,0,.12-.11.12s-.08,0-.08-.16.18-1,.2-1.11.06-.18.11-.18a2.39,2.39,0,0,0,.42.12c.28,0,.65,0,1,0h3.82a4.28,4.28,0,0,0,.92-.09c.07,0,.08.06.08.2s0,.87,0,1.12c0,.09,0,.15-.08.15s-.1-.05-.11-.19v-.11c0-.25-.28-.52-1.14-.54l-1.21,0v4c0,.89,0,1.65,0,2.07,0,.27.08.48.37.52a4,4,0,0,0,.49,0c.11,0,.16,0,.16.07s-.08.1-.18.1c-.64,0-1.25,0-1.52,0l-1.21,0c-.13,0-.19,0-.19-.1s0-.07.15-.07a1.61,1.61,0,0,0,.35,0c.19,0,.25-.25.28-.53s0-1.17,0-2.06Z"/><path class="cls-2" d="M84.7,36.81s-.07,0-.09.08l-.52,1.38a1.72,1.72,0,0,0-.14.59c0,.17.08.3.38.3h.15c.11,0,.14,0,.14.07s-.06.1-.16.1l-1,0c-.11,0-.64,0-1.14,0-.13,0-.19,0-.19-.1s0-.07.12-.07l.3,0c.44-.06.63-.39.82-.87l2.42-6.05c.11-.28.17-.39.27-.39s.14.09.24.31c.23.53,1.77,4.46,2.39,5.93.36.86.64,1,.85,1a1.94,1.94,0,0,0,.4,0c.08,0,.13,0,.13.07s-.09.1-.45.1-1,0-1.82,0c-.17,0-.29,0-.29-.08s0-.07.14-.08a.16.16,0,0,0,.08-.22l-.77-2a.09.09,0,0,0-.09-.07Zm2-.48s.06,0,0-.06l-.87-2.38s0-.08,0-.08,0,0-.06.08l-.89,2.38s0,.06,0,.06Z"/><path class="cls-2" d="M100.26,38c0,.75.15,1,.34,1.07a1.47,1.47,0,0,0,.5.07c.11,0,.16,0,.16.07s-.08.1-.22.1c-.62,0-1,0-1.19,0s-.54,0-1,0c-.13,0-.22,0-.22-.1s.06-.07.16-.07a1.63,1.63,0,0,0,.43,0c.25-.08.29-.36.3-1.2l.09-5.7c0-.19,0-.33.12-.33s.2.13.36.3,1.58,1.7,3,3.09c.65.66,1.95,2,2.12,2.2h0l-.09-4.33c0-.58-.1-.77-.33-.86a1.51,1.51,0,0,0-.51-.06c-.12,0-.15,0-.15-.09s.1-.09.25-.09c.5,0,1,0,1.16,0s.47,0,1,0c.12,0,.22,0,.22.09s-.06.09-.17.09a1,1,0,0,0-.29,0c-.27.07-.35.28-.36.82l-.11,6.08c0,.21,0,.3-.12.3s-.22-.11-.33-.22c-.61-.57-1.84-1.84-2.84-2.83s-2.12-2.25-2.3-2.43h0Z"/><path class="cls-2" d="M117.51,34.84c0-1.47,0-1.74,0-2s-.1-.49-.41-.55a1.94,1.94,0,0,0-.38,0c-.11,0-.16,0-.16-.09s.06-.09.21-.09c.51,0,1.12,0,1.31,0,.47,0,.85,0,1.17,0,1.75,0,2.06.94,2.06,1.45a2.12,2.12,0,0,1-1,1.69,2.35,2.35,0,0,1,1.76,2.08c0,1-.8,2.1-2.57,2.1-.24,0-1.11-.06-1.4-.06l-1.22,0c-.12,0-.19,0-.19-.1s0-.07.16-.07a1.44,1.44,0,0,0,.34,0c.2,0,.24-.25.28-.53s.05-1.17.05-2.06Zm1.16.16c0,.08,0,.1.06.11a2.32,2.32,0,0,0,.46,0,1,1,0,0,0,.69-.19,1.24,1.24,0,0,0,.4-1c0-.64-.38-1.49-1.21-1.49a1.57,1.57,0,0,0-.32,0c-.06,0-.08.06-.08.16Zm1.27.77a1.43,1.43,0,0,0-.8-.23h-.42s0,0,0,.07v2.28c0,.64,0,.8.33.93a1.71,1.71,0,0,0,.71.12,1.13,1.13,0,0,0,1.16-1.24A2.3,2.3,0,0,0,119.94,35.77Z"/><path class="cls-2" d="M132.57,34.84c0-1.47,0-1.74,0-2s-.09-.49-.41-.55a1.94,1.94,0,0,0-.38,0c-.1,0-.16,0-.16-.09s.07-.09.21-.09c.51,0,1.12,0,1.41,0l1.18,0c.15,0,.22,0,.22.09s-.06.09-.16.09a1.49,1.49,0,0,0-.28,0c-.26,0-.34.21-.35.55s0,.57,0,2v1.35c0,1.4.28,2,.75,2.37a1.74,1.74,0,0,0,1.2.39,1.85,1.85,0,0,0,1.33-.52,3.31,3.31,0,0,0,.56-2.39v-1.2c0-1.47,0-1.74,0-2s-.09-.49-.41-.55a1.83,1.83,0,0,0-.35,0c-.11,0-.16,0-.16-.09s.06-.09.2-.09c.49,0,1.1,0,1.11,0s.72,0,1.1,0c.13,0,.2,0,.2.09s-.06.09-.18.09a1.49,1.49,0,0,0-.28,0c-.25,0-.33.21-.35.55s0,.57,0,2v1a3.64,3.64,0,0,1-.92,2.9,2.84,2.84,0,0,1-2,.69,3.07,3.07,0,0,1-2.14-.66,3.16,3.16,0,0,1-.86-2.55Z"/><path class="cls-2" d="M151.06,36.53c0,1.24,0,1.9.21,2.08s.41.21,1.16.21c.51,0,.89,0,1.13-.27a1.21,1.21,0,0,0,.25-.58c0-.09,0-.14.11-.14s.07,0,.07.16a7.09,7.09,0,0,1-.14,1.11c-.06.21-.11.26-.61.26-1.38,0-2-.06-2.8-.06l-1.22,0c-.12,0-.19,0-.19-.1s0-.07.16-.07a1.44,1.44,0,0,0,.34,0c.2,0,.24-.25.28-.53s.05-1.17.05-2.06V34.84c0-1.47,0-1.74,0-2s-.1-.49-.41-.55a1.45,1.45,0,0,0-.32,0c-.11,0-.17,0-.17-.09s.07-.09.22-.09c.45,0,1.06,0,1.32,0l1.31,0c.13,0,.2,0,.2.09s-.06.09-.17.09a2.53,2.53,0,0,0-.38,0c-.26,0-.34.21-.36.55s0,.57,0,2Z"/></svg>